<svg id="Layer_1" enable-background="new 0 0 53 53" height="512" viewBox="0 0 53 53" width="512" xmlns="http://www.w3.org/2000/svg"><g id="_x36_1"><path d="m39.998127 20.7192154c1.9716797 0 3.5751953-1.6025391 3.5751953-3.5727539 0-1.965333-1.6035156-3.5644541-3.5751953-3.5644541-1.9658203 0-3.5654297 1.5991211-3.5654297 3.5644541 0 1.9702148 1.5996094 3.5727539 3.5654297 3.5727539zm0-5.137208c.8681641 0 1.5751953.7016611 1.5751953 1.5644541 0 .8671875-.7070313 1.5727539-1.5751953 1.5727539-.8632813 0-1.5654297-.7055664-1.5654297-1.5727539 0-.862793.7021484-1.5644541 1.5654297-1.5644541z"/><path d="m11.6992979 34.885231c1.9716797 0 3.5761719-1.6044922 3.5761719-3.5761719s-1.6044922-3.5756836-3.5761719-3.5756836-3.5761719 1.604004-3.5761719 3.5756836 1.6044922 3.5761719 3.5761719 3.5761719zm0-5.1518555c.8691406 0 1.5761719.7070313 1.5761719 1.5756836 0 .8691406-.7070313 1.5761719-1.5761719 1.5761719s-1.5761719-.7070313-1.5761719-1.5761719c0-.8686523.7070313-1.5756836 1.5761719-1.5756836z"/><path d="m29.3721485 34.885231c1.9716797 0 3.5761738-1.6044922 3.5761738-3.5761719s-1.6044941-3.5756836-3.5761738-3.5756836-3.5761719 1.6040039-3.5761719 3.5756836 1.6044922 3.5761719 3.5761719 3.5761719zm0-5.1518555c.8691406 0 1.5761719.7070313 1.5761719 1.5756836 0 .8691406-.7070313 1.5761719-1.5761719 1.5761719s-1.5761719-.7070313-1.5761719-1.5761719c0-.8686523.7070313-1.5756836 1.5761719-1.5756836z"/><path d="m16.2002735 8.998023h8.609375c.5527344 0 1-.4477539 1-1s-.4472656-1-1-1h-8.609375c-.5527334 0-.999999.4477539-.999999 1s.4472656 1 .999999 1z"/><path d="m5.1084771 50.4272232c.5097656.206543 1.09375-.0415039 1.3007813-.5541992l1.3120728-3.2587891h25.9198017l1.3120728 3.2587891c.2062721.5111961.788269.7612534 1.3007813.5541992.5126953-.206543.7607422-.7890625.5546875-1.3012695l-4.4396362-11.0275879c2.4575806-.8973999 4.2199097-3.2514648 4.2199097-6.0158691v-4.6574097c1.0920105 1.600811 1.9319839 2.7478771 2.7617188 3.7965698.1894531.2382813.4775391.3769531.7822266.3769531h.0039063c.3066406-.0014648.5947266-.1425781.7832031-.3837891 2.2524872-2.8400936 6.7798767-9.35993 7.4707031-13.0546875.0029297-.0195313.0058594-.0410156.0087891-.0634766.8420105-4.1833353-2.8661995-9.3217783-8.2666016-9.3217783-1.2593384 0-2.4731445.2817383-3.5872803.8125-.1713257-1.2518921-.8726196-2.3574829-1.9527588-3.0317383-2.977541-1.8530273-7.8291035-4.0556641-14.0654316-4.0556641-.0292969 0-.0595703 0-.0878906 0-6.1943358.020508-11.0117186 2.2172853-13.9619144 4.0561525-1.25.7797852-1.9960938 2.137207-1.9960938 3.6308594v21.8955078c0 2.8596191 1.8835449 5.2861938 4.4744878 6.1088867l-4.4022221 10.9345713c-.2060547.512207.0419922 1.0947265.5546875 1.3012695zm3.4180913-5.8129883.762146-1.8930664h22.7850342l.762146 1.8930664zm22.7419424-3.8930664h-21.1745596l.897644-2.2294922h19.1881714c.0632324 0 .1244507-.0076294.1872559-.0094604zm-24.7869868-19.2260742v-8.4140635h13.023437v8.4140635zm15.023437-8.4140635h11.3173847c-.7314911 1.321785-1.0771503 2.6660509-1.0771503 4.0610361 0 1.3786392.7108898 3.1065998 1.3085346 4.3530273h-11.548769zm24.9248066 4.6630869c-.0058594.0302734-.0117188.0644531-.0146484.0991211-.6138916 3.1156445-4.3808517 8.5422134-6.2871094 11.105957-1.7234077-2.2996559-6.3828125-8.9106522-6.3828125-11.8071289 0-3.4580107 2.8295784-6.3671885 6.3876953-6.3671885 4.1577377.0000001 6.9239349 4.0653516 6.296875 6.9692393zm-38.8935561-9.4907236c8.0476418-5.0171785 17.9794445-4.991982 25.9990253 0 .6601563.4116211 1.0537109 1.1342773 1.0537109 1.9335938v.6826172c-.0271606.0238037-.0497437.0522461-.0765991.076416-.0507202.0455933-.1038208.0881348-.1533203.1350098h-27.8775043v-.894043c0-.7988281.3945312-1.5219727 1.0546875-1.9335938zm-1.0546875 23.8291025v-8.5874023h27.6313496c.0235596.0415039.0496216.0848999.0736084.126709.1341553.2338257.2571411.4586182.4024658.701416v7.7592773c0 2.3186646-1.8047485 4.2045288-4.0806904 4.3759766h-19.9450679c-2.276062-.1714477-4.0816655-2.057312-4.0816655-4.3759766z"/></g></svg>