<?xml version="1.0" encoding="UTF-8"?>
<svg id="Layer_2" data-name="Layer 2" xmlns="http://www.w3.org/2000/svg" viewBox="0 0 1187.87 435.56">
  <defs>
    <style>
      .cls-1 {
        fill: #f5bc62;
      }

      .cls-2 {
        fill: #fff;
      }
    </style>
  </defs>
  <g id="Layer_1-2" data-name="Layer 1">
    <g id="Logo">
      <g>
        <path class="cls-2" d="M391.94,403.85v22.6c-6.12,6.12-13.18,9.02-21.89,9.02-16.95,0-28.25-11.46-28.25-28.56s11.77-28.56,28.72-28.56c7.77,0,14.91,2.98,20.24,8.4l-4.94,5.1c-3.92-4-9.65-6.28-15.3-6.28-12.4,0-21.03,8.71-21.03,21.34s8.16,21.34,20.56,21.34c5.81,0,10.52-1.57,14.75-5.02v-12.48h-16.24v-6.91h23.38Z"/>
        <path class="cls-2" d="M478.5,415.08h-12.48v19.3h-7.61v-54.93h25.27c11.53,0,19.15,7.06,19.15,17.81,0,9.42-5.89,16.01-15.07,17.5l17.34,19.62h-9.73l-16.87-19.3ZM466.02,386.59v21.34h17.81c7.06,0,11.38-4.08,11.38-10.67s-4.32-10.67-11.38-10.67h-17.81Z"/>
        <path class="cls-2" d="M566.24,406.91c0-16.95,11.38-28.64,28.01-28.64s28.01,11.69,28.01,28.64-11.38,28.64-28.01,28.64-28.01-11.69-28.01-28.64M614.57,406.91c0-12.71-8.32-21.42-20.32-21.42s-20.32,8.71-20.32,21.42,8.32,21.42,20.32,21.42,20.32-8.71,20.32-21.42"/>
        <path class="cls-2" d="M687.33,412.09v-32.64h7.53v32.49c0,9.89,6.12,16.32,15.38,16.32s15.38-6.43,15.38-16.32v-32.49h7.61v32.64c0,14.2-9.02,23.38-22.99,23.38s-22.91-9.18-22.91-23.38"/>
        <path class="cls-2" d="M846.08,398.28c0,11.3-7.61,18.91-19.46,18.91h-17.42v17.19h-7.61v-54.93h25.03c11.85,0,19.46,7.61,19.46,18.83M838.55,398.28c0-7.14-4.79-11.77-12.32-11.77h-17.03v23.62h17.03c7.53,0,12.32-4.71,12.32-11.85"/>
      </g>
      <g>
        <path class="cls-2" d="M93.75,49.53h29.17l94.75,230.02h-29.54c-3.85,0-7.32-2.32-8.79-5.88l-26.25-63.62H40.64l-25.77,63.57c-1.45,3.59-4.94,5.94-8.81,5.94H0L93.75,49.53ZM45.88,196.96h101.98l-51.36-124.98-50.62,124.98Z"/>
        <path class="cls-2" d="M382.74,187.29h-54.85v82.75c0,5.25-4.26,9.51-9.51,9.51h-22.9V49.53h95.25c57.85,0,91.01,20.26,91.01,68.57,0,38.02-21.94,60.47-61.59,67.01l62.59,94.44h-33.55c-3.18,0-6.16-1.59-7.92-4.24l-58.52-88.01ZM389.48,173.89c41.89,0,58.35-14.34,58.35-55.79s-16.46-55.48-59.09-55.48h-60.84v111.27h61.59Z"/>
        <path class="cls-2" d="M879.19,49.53h23.65c5.25,0,9.51,4.26,9.51,9.51v220.51h-23.65c-5.25,0-9.51-4.26-9.51-9.51V49.53Z"/>
        <path class="cls-2" d="M999.87,273.32h0c0-6.36,5.62-11.24,11.92-10.35,21.54,3.05,44.02,5.05,68.62,5.05,50.12,0,76.8-10.91,76.8-46.13,0-12.78-3.49-21.82-12.72-28.36-10.47-7.17-27.93-10.6-59.59-15.89-31.42-4.99-50.87-10.6-63.33-20.26-12.47-10.29-17.7-24.62-17.7-44.88,0-50.49,37.9-65.45,94.5-65.45,25.18,0,50.37,3.43,73.06,8.42,0,6.3-5.62,11.12-11.85,10.15-18.37-2.85-37.12-4.54-57.22-4.54-45.63,0-68.07,10.29-68.07,40.21,0,11.84,2.74,20.57,10.47,26.8,9.48,6.86,25.68,11.22,57.35,15.89,31.67,4.99,52.11,9.97,65.58,19.64,14.21,10.6,20.2,25.56,20.2,47.38,0,54.54-43.14,70.75-103.23,70.75-30.67,0-59.09-3.74-84.78-8.42"/>
        <g>
          <path class="cls-1" d="M822.14,124.54c-10.18-61.15-55.68-106.96-110.29-120.47-.02,0-.05,0-.07-.02-1.73-.4-3.48-.81-5.24-1.17-.9-.2-1.82-.36-2.72-.54-1.03-.18-2.07-.36-3.12-.54-2.09-.36-4.18-.65-6.29-.88-.9-.11-1.82-.2-2.74-.29-1.26-.14-2.52-.22-3.8-.31-1.89-.11-3.8-.22-5.69-.25-2.31-.09-4.63-.09-6.97-.02-.52,0-1.03.02-1.55.04-.97.02-1.96.07-2.92.13-2.58.13-5.17.36-7.78.65-1.24.13-2.5.29-3.75.47-.05,0-.09,0-.14.02-1.3.18-2.59.38-3.89.61-2.61.45-5.19.97-7.8,1.57-1.3.31-2.61.63-3.89.97-1.3.34-2.61.7-3.89,1.08-.88.25-1.78.52-2.65.81-.76.22-1.53.49-2.29.74-.07.02-.14.05-.2.07-1.75.58-3.51,1.21-5.26,1.89-.9.36-1.8.7-2.7,1.06-8.72,3.57-17.31,8.09-25.63,13.65-.79.52-1.57,1.06-2.38,1.62-40.4,28.93-63.3,79.22-62,128.54,1.19,57.44,33.36,105.75,78.73,129.4.07.05.13.07.22.11.79.38,1.55.79,2.34,1.17.79.38,1.6.74,2.38,1.1,59.8,26.57,121.55,9.69,161.43-30.24.58-.58,1.17-1.19,1.73-1.8,31.85-33.65,47.5-82.01,38.82-129.17ZM784.24,208.89c-26.37,50.33-87.04,78.91-147.58,61.51-50.69-13.76-89.04-59.08-90.89-112.18-2.43-48.96,27.52-92.24,70.72-112.02h.02c3.69-1.51,7.49-2.83,11.35-3.98,77.87-25.36,165.54,27.25,167.79,111.75.38,20.03-3.78,38.55-11.42,54.92Z"/>
          <g>
            <path class="cls-1" d="M691.52,150.33c-2.32-5.96-7.55-19.36-20.6-26.86-2.08-1.19-12.13-6.96-22.59-4.69-2.44.53-7.37,2.04-12.37,5.54-1.59,1.12-2.83,2.19-3.69,2.99-1.71.03-6.21.34-10.38,3.55-2.28,1.75-3.64,3.74-4.41,5.12,5.69.07,11.37.15,17.05.21,1.39.33,3.77,1.09,6.08,2.99.6.5,5.32,4.51,5.44,11.18.07,3.97-1.53,6.91-2.34,8.21-2.15.99-5.18,2.68-8.1,5.54-1.61,1.58-7.19,7.42-9.16,20.74-.52,3.48-2.15,16.63,5.12,36.95,8.75,24.5,23.61,40.33,31.54,47.74,10.08,9.42,19.9,15.42,26.71,19.04.76-4.32,16.96-99.13,1.7-138.25ZM666.1,243.73c-17.59-21.33-26.12-50.51-21.75-77.88,1.74,17.96,5.38,35.41,12.63,51.86,7.07,16.5,17.42,31.06,29.58,44.38-7.71-4.93-14.58-11.23-20.47-18.36Z"/>
            <path class="cls-1" d="M666.84,272.75c20.33,12.57,59.3,36.21,102.58,59.25,10.04,5.34,24.97,13.01,41.1,8.33,13.19-3.83,21.43-14.28,25.72-20.97-22.8-1.38-50.59-4.96-81.42-13.22-37.99-10.18-68.83-24.33-91.82-37.01,1.28,1.21,2.56,2.41,3.84,3.62"/>
          </g>
        </g>
      </g>
    </g>
  </g>
</svg>