<svg width="18" height="12" viewBox="0 0 18 12" fill="none" xmlns="http://www.w3.org/2000/svg">
<path d="M6.67969 0.591761C6.97852 0.88473 6.97852 1.37106 6.68555 1.66989L3.12891 5.23825H16.6816C17.0977 5.23825 17.4375 5.57809 17.4375 5.99996C17.4375 6.42184 17.0977 6.76168 16.6816 6.76168H3.12891L6.69141 10.33C6.98438 10.6289 6.97852 11.1093 6.68555 11.4082C6.38672 11.7011 5.91211 11.7011 5.61328 11.4023L0.785157 6.53903C0.720703 6.46871 0.667969 6.39254 0.626953 6.29879C0.585938 6.20504 0.568359 6.10543 0.568359 6.00582C0.568359 5.8066 0.644532 5.6191 0.785157 5.47262L5.61328 0.609339C5.90039 0.304652 6.38086 0.298792 6.67969 0.591761Z" fill="black"/>
</svg>
